<svg width="200" height="93" viewBox="0 0 200 93" fill="none" xmlns="http://www.w3.org/2000/svg">
<path d="M80.5149 50.8909H82.3318V70.0997H80.2121V55.254L73.8783 65.5719H72.5661L66.2322 55.254V70.0997H64.1125V50.8909H65.9294L73.2222 62.7455L80.5149 50.8909Z" fill="#383838"/>
<path d="M87.6373 70.0997H85.341L93.0375 50.8909H95.3843L103.056 70.0997H100.784L98.9675 65.4621H89.4542L87.6373 70.0997ZM93.9207 53.9917L90.2869 63.3217H98.1348L94.4758 53.9917C94.4422 53.9003 94.3497 53.6533 94.1982 53.2508C94.0468 53.6716 93.9543 53.9185 93.9207 53.9917Z" fill="#383838"/>
<path d="M108.198 70.0997H106.079V50.8909H112.993C114.154 50.8909 115.205 51.0647 116.147 51.4123C117.089 51.7415 117.897 52.3635 118.57 53.2783C119.259 54.1747 119.604 55.318 119.604 56.7084C119.604 58.3549 119.167 59.6355 118.292 60.5502C117.417 61.4649 116.282 62.0594 114.885 62.3338L120.866 70.0997H118.216L112.438 62.5259H108.198V70.0997ZM108.198 53.0862V60.3306H113.094C114.339 60.3306 115.373 60.0562 116.198 59.5074C117.039 58.9403 117.459 58.0073 117.459 56.7084C117.459 55.3912 117.039 54.4582 116.198 53.9094C115.373 53.3606 114.339 53.0862 113.094 53.0862H108.198Z" fill="#383838"/>
<path d="M126.249 70.0997H124.129V50.8909H126.249V59.2055H130.261L135.585 50.8909H138.008L132.002 60.2483L138.538 70.0997H136.115L130.337 61.4008H126.249V70.0997Z" fill="#383838"/>
<path d="M141.416 50.8909H153.326V53.0862H143.535V59.3153H152.569V61.5106H143.535V67.9044H153.478V70.0997H141.416V50.8909Z" fill="#383838"/>
<path d="M155.6 50.8909H170.135V53.0862H163.928V70.0997H161.808V53.0862H155.6V50.8909Z" fill="#383838"/>
<path d="M16.1126 24.3833L0 53.5124H4.3149L16.1126 33.6021H17.915L6.0627 53.5124H8.62979L18.5158 35.6749L40.0903 72.168L16.1126 24.3833Z" fill="url(#paint0_linear)"/>
<path d="M17.5327 23.3469L44.6783 78.3321L55.0013 24.3833H40.8003L36.2123 35.0203H35.3384V13.3099H28.5657V23.3469H17.5327Z" fill="url(#paint1_linear)"/>
<path d="M57.8961 23.3469L46.9723 76.8047L80.8906 6.27311H68.8198L65.7612 12.4917V0H60.9001V6.27311H53.8543L44.9514 23.3469H57.8961Z" fill="url(#paint2_linear)"/>
<path d="M55.0013 64.6949L81.7099 7.14589L104.73 47.2736H170.135V48.6575H105.524H101.1L81.7099 13.8554L80.8906 15.11L100.062 48.6575H98.5872L80.8906 16.5283L55.0013 64.6949Z" fill="url(#paint3_linear)"/>
<path d="M80.1806 25.8561H78.0504V28.7472H80.1806V25.8561Z" fill="url(#paint4_linear)"/>
<path d="M83.4031 25.9107H81.3822V28.7472H83.4031V25.9107Z" fill="url(#paint5_linear)"/>
<path d="M83.4031 33.6021V30.6564H81.3822V33.6021H83.4031Z" fill="url(#paint6_linear)"/>
<path d="M80.1806 33.6021V30.6564H78.0504V33.6021H80.1806Z" fill="url(#paint7_linear)"/>
<path d="M16.058 47.8938V44.3482H18.7889V47.8938H16.058Z" fill="url(#paint8_linear)"/>
<path d="M22.2299 44.3482H19.7174V47.8938H22.2299V44.3482Z" fill="url(#paint9_linear)"/>
<path d="M19.7174 52.7487V49.4212H22.3391V52.7487H19.7174Z" fill="url(#paint10_linear)"/>
<path d="M18.7889 52.7487V49.4212H16.058V52.7487H18.7889Z" fill="url(#paint11_linear)"/>
<path d="M89.0591 10.1033L87.8117 7.14589C106.804 2.81638 131.343 3.86671 137.829 4.73984C140.178 5.05601 214.54 12.4917 197.452 49.893C183.781 79.8141 130.47 90.4666 105.524 92.0526C32.3057 97.9151 2.99358 72.168 0.374198 56.7533H5.7377C7.93299 65.5345 12.4733 69.3929 14.469 70.2244C12.6728 69.3264 8.98075 59.7469 10.2281 56.7533H12.3485L12.0991 57.377C10.2281 62.0053 21.2045 83.5708 48.7704 86.9386C76.3363 90.3064 87.5623 90.6806 126.105 82.9472C164.647 75.2137 179.989 50.5167 180.363 49.893L180.369 49.8843C180.829 49.1176 191.722 30.994 163.899 15.5916C141.547 3.2181 104.692 6.77714 89.0591 10.1033Z" fill="url(#paint12_linear)"/>
<path d="M108.551 44.6544H106.749V29.6366H112.628C113.614 29.6366 114.508 29.7725 115.309 30.0442C116.11 30.3017 116.797 30.788 117.369 31.5031C117.955 32.2039 118.248 33.0978 118.248 34.1848C118.248 35.4721 117.877 36.4733 117.133 37.1884C116.389 37.9035 115.424 38.3684 114.237 38.5829L119.321 44.6544H117.069L112.156 38.7331H108.551V44.6544ZM108.551 31.3529V37.0168H112.713C113.772 37.0168 114.651 36.8022 115.352 36.3732C116.067 35.9298 116.425 35.2003 116.425 34.1848C116.425 33.1551 116.067 32.4256 115.352 31.9965C114.651 31.5675 113.772 31.3529 112.713 31.3529H108.551Z" fill="#383838"/>
<path d="M121.756 39.9989C121.427 39.0835 121.262 38.1324 121.262 37.1455C121.262 36.1586 121.427 35.2075 121.756 34.2921C122.099 33.3767 122.585 32.5543 123.215 31.8249C123.844 31.0812 124.666 30.4876 125.682 30.0442C126.697 29.6008 127.842 29.3792 129.114 29.3792C130.387 29.3792 131.532 29.6008 132.547 30.0442C133.563 30.4876 134.385 31.0812 135.014 31.8249C135.644 32.5543 136.123 33.3767 136.452 34.2921C136.795 35.2075 136.967 36.1586 136.967 37.1455C136.967 38.1324 136.795 39.0835 136.452 39.9989C136.123 40.9143 135.644 41.7438 135.014 42.4875C134.385 43.217 133.563 43.8034 132.547 44.2468C131.532 44.6902 130.387 44.9118 129.114 44.9118C127.842 44.9118 126.697 44.6902 125.682 44.2468C124.666 43.8034 123.844 43.217 123.215 42.4875C122.585 41.7438 122.099 40.9143 121.756 39.9989ZM134.757 39.3982C135.014 38.683 135.143 37.9321 135.143 37.1455C135.143 36.3589 135.014 35.608 134.757 34.8928C134.514 34.1777 134.149 33.5341 133.663 32.962C133.191 32.3899 132.561 31.9393 131.775 31.6104C130.988 31.2671 130.101 31.0955 129.114 31.0955C128.128 31.0955 127.241 31.2671 126.454 31.6104C125.667 31.9393 125.031 32.3899 124.545 32.962C124.073 33.5341 123.708 34.1777 123.451 34.8928C123.207 35.608 123.086 36.3589 123.086 37.1455C123.086 37.9321 123.207 38.683 123.451 39.3982C123.708 40.1133 124.073 40.7569 124.545 41.329C125.031 41.9011 125.667 42.3588 126.454 42.7021C127.241 43.031 128.128 43.1955 129.114 43.1955C130.101 43.1955 130.988 43.031 131.775 42.7021C132.561 42.3588 133.191 41.9011 133.663 41.329C134.149 40.7569 134.514 40.1133 134.757 39.3982Z" fill="#383838"/>
<path d="M140.147 39.9989C139.819 39.0835 139.654 38.1324 139.654 37.1455C139.654 36.1586 139.819 35.2075 140.147 34.2921C140.491 33.3767 140.977 32.5543 141.606 31.8249C142.236 31.0812 143.058 30.4876 144.074 30.0442C145.089 29.6008 146.233 29.3792 147.506 29.3792C148.779 29.3792 149.923 29.6008 150.939 30.0442C151.954 30.4876 152.777 31.0812 153.406 31.8249C154.035 32.5543 154.515 33.3767 154.843 34.2921C155.187 35.2075 155.358 36.1586 155.358 37.1455C155.358 38.1324 155.187 39.0835 154.843 39.9989C154.515 40.9143 154.035 41.7438 153.406 42.4875C152.777 43.217 151.954 43.8034 150.939 44.2468C149.923 44.6902 148.779 44.9118 147.506 44.9118C146.233 44.9118 145.089 44.6902 144.074 44.2468C143.058 43.8034 142.236 43.217 141.606 42.4875C140.977 41.7438 140.491 40.9143 140.147 39.9989ZM153.149 39.3982C153.406 38.683 153.535 37.9321 153.535 37.1455C153.535 36.3589 153.406 35.608 153.149 34.8928C152.905 34.1777 152.541 33.5341 152.054 32.962C151.582 32.3899 150.953 31.9393 150.167 31.6104C149.38 31.2671 148.493 31.0955 147.506 31.0955C146.519 31.0955 145.633 31.2671 144.846 31.6104C144.059 31.9393 143.423 32.3899 142.937 32.962C142.465 33.5341 142.1 34.1777 141.842 34.8928C141.599 35.608 141.478 36.3589 141.478 37.1455C141.478 37.9321 141.599 38.683 141.842 39.3982C142.1 40.1133 142.465 40.7569 142.937 41.329C143.423 41.9011 144.059 42.3588 144.846 42.7021C145.633 43.031 146.519 43.1955 147.506 43.1955C148.493 43.1955 149.38 43.031 150.167 42.7021C150.953 42.3588 151.582 41.9011 152.054 41.329C152.541 40.7569 152.905 40.1133 153.149 39.3982Z" fill="#383838"/>
<path d="M159.054 29.6366H169.223V31.3529H160.856V36.5233H168.601V38.2397H160.856V44.6544H159.054V29.6366Z" fill="#383838"/>
<path d="M179.365 62.7404C199.622 45.4774 190.051 30.7673 182.733 25.5701C197.801 51.6142 163.899 72.4695 145.937 79.0803C148.058 78.5814 160.78 76.7104 179.365 62.7404Z" fill="white"/>
<defs>
<linearGradient id="paint0_linear" x1="52.7619" y1="0" x2="52.7619" y2="78.3321" gradientUnits="userSpaceOnUse">
<stop stop-color="#F7D745"/>
<stop offset="1" stop-color="#FFAD00"/>
</linearGradient>
<linearGradient id="paint1_linear" x1="52.7619" y1="0" x2="52.7619" y2="78.3321" gradientUnits="userSpaceOnUse">
<stop stop-color="#F7D745"/>
<stop offset="1" stop-color="#FFAD00"/>
</linearGradient>
<linearGradient id="paint2_linear" x1="52.7619" y1="0" x2="52.7619" y2="78.3321" gradientUnits="userSpaceOnUse">
<stop stop-color="#F7D745"/>
<stop offset="1" stop-color="#FFAD00"/>
</linearGradient>
<linearGradient id="paint3_linear" x1="52.7619" y1="0" x2="52.7619" y2="78.3321" gradientUnits="userSpaceOnUse">
<stop stop-color="#F7D745"/>
<stop offset="1" stop-color="#FFAD00"/>
</linearGradient>
<linearGradient id="paint4_linear" x1="52.7619" y1="0" x2="52.7619" y2="78.3321" gradientUnits="userSpaceOnUse">
<stop stop-color="#F7D745"/>
<stop offset="1" stop-color="#FFAD00"/>
</linearGradient>
<linearGradient id="paint5_linear" x1="52.7619" y1="0" x2="52.7619" y2="78.3321" gradientUnits="userSpaceOnUse">
<stop stop-color="#F7D745"/>
<stop offset="1" stop-color="#FFAD00"/>
</linearGradient>
<linearGradient id="paint6_linear" x1="52.7619" y1="0" x2="52.7619" y2="78.3321" gradientUnits="userSpaceOnUse">
<stop stop-color="#F7D745"/>
<stop offset="1" stop-color="#FFAD00"/>
</linearGradient>
<linearGradient id="paint7_linear" x1="52.7619" y1="0" x2="52.7619" y2="78.3321" gradientUnits="userSpaceOnUse">
<stop stop-color="#F7D745"/>
<stop offset="1" stop-color="#FFAD00"/>
</linearGradient>
<linearGradient id="paint8_linear" x1="52.7619" y1="0" x2="52.7619" y2="78.3321" gradientUnits="userSpaceOnUse">
<stop stop-color="#F7D745"/>
<stop offset="1" stop-color="#FFAD00"/>
</linearGradient>
<linearGradient id="paint9_linear" x1="52.7619" y1="0" x2="52.7619" y2="78.3321" gradientUnits="userSpaceOnUse">
<stop stop-color="#F7D745"/>
<stop offset="1" stop-color="#FFAD00"/>
</linearGradient>
<linearGradient id="paint10_linear" x1="52.7619" y1="0" x2="52.7619" y2="78.3321" gradientUnits="userSpaceOnUse">
<stop stop-color="#F7D745"/>
<stop offset="1" stop-color="#FFAD00"/>
</linearGradient>
<linearGradient id="paint11_linear" x1="52.7619" y1="0" x2="52.7619" y2="78.3321" gradientUnits="userSpaceOnUse">
<stop stop-color="#F7D745"/>
<stop offset="1" stop-color="#FFAD00"/>
</linearGradient>
<linearGradient id="paint12_linear" x1="52.7619" y1="0" x2="52.7619" y2="78.3321" gradientUnits="userSpaceOnUse">
<stop stop-color="#F7D745"/>
<stop offset="1" stop-color="#FFAD00"/>
</linearGradient>
</defs>
</svg>
