<svg width="206" height="99" viewBox="0 0 206 99" fill="none" xmlns="http://www.w3.org/2000/svg">
<g filter="url(#filter0_d)">
<path d="M83.5149 52.8906H85.3318V72.0994H83.2121V57.2538L76.8783 67.5716H75.5661L69.2322 57.2538V72.0994H67.1125V52.8906H68.9294L76.2222 64.7452L83.5149 52.8906Z" fill="white"/>
<path d="M90.6373 72.0994H88.341L96.0375 52.8906H98.3843L106.056 72.0994H103.784L101.968 67.4619H92.4542L90.6373 72.0994ZM96.9207 55.9915L93.2869 65.3215H101.135L97.4758 55.9915C97.4422 55.9 97.3497 55.653 97.1982 55.2506C97.0468 55.6713 96.9543 55.9183 96.9207 55.9915Z" fill="white"/>
<path d="M111.198 72.0994H109.079V52.8906H115.993C117.154 52.8906 118.205 53.0644 119.147 53.412C120.089 53.7413 120.897 54.3633 121.57 55.278C122.259 56.1744 122.604 57.3178 122.604 58.7082C122.604 60.3546 122.167 61.6352 121.292 62.5499C120.417 63.4646 119.282 64.0592 117.885 64.3336L123.866 72.0994H121.216L115.438 64.5257H111.198V72.0994ZM111.198 55.0859V62.3304H116.094C117.339 62.3304 118.373 62.056 119.198 61.5072C120.039 60.94 120.459 60.007 120.459 58.7082C120.459 57.391 120.039 56.458 119.198 55.9092C118.373 55.3603 117.339 55.0859 116.094 55.0859H111.198Z" fill="white"/>
<path d="M129.249 72.0994H127.129V52.8906H129.249V61.2053H133.261L138.585 52.8906H141.008L135.002 62.2481L141.538 72.0994H139.115L133.337 63.4006H129.249V72.0994Z" fill="white"/>
<path d="M144.416 52.8906H156.326V55.0859H146.535V61.3151H155.569V63.5104H146.535V69.9041H156.478V72.0994H144.416V52.8906Z" fill="white"/>
<path d="M158.6 52.8906H173.135V55.0859H166.928V72.0994H164.808V55.0859H158.6V52.8906Z" fill="white"/>
<path d="M19.1126 26.3833L3 55.5124H7.3149L19.1126 35.6021H20.915L9.0627 55.5124H11.6298L21.5158 37.6749L43.0903 74.168L19.1126 26.3833Z" fill="url(#paint0_linear)"/>
<path d="M20.5327 25.3469L47.6783 80.3321L58.0013 26.3833H43.8003L39.2123 37.0203H38.3384V15.3099H31.5657V25.3469H20.5327Z" fill="url(#paint1_linear)"/>
<path d="M60.8961 25.3469L49.9723 78.8047L83.8906 8.27311H71.8198L68.7612 14.4917V2H63.9001V8.27311H56.8543L47.9514 25.3469H60.8961Z" fill="url(#paint2_linear)"/>
<path d="M58.0013 66.6949L84.7099 9.14589L107.73 49.2736H173.135V50.6575H108.524H104.1L84.7099 15.8554L83.8906 17.11L103.062 50.6575H101.587L83.8906 18.5283L58.0013 66.6949Z" fill="url(#paint3_linear)"/>
<path d="M83.1806 27.8561H81.0504V30.7472H83.1806V27.8561Z" fill="url(#paint4_linear)"/>
<path d="M86.4031 27.9107H84.3822V30.7472H86.4031V27.9107Z" fill="url(#paint5_linear)"/>
<path d="M86.4031 35.6021V32.6564H84.3822V35.6021H86.4031Z" fill="url(#paint6_linear)"/>
<path d="M83.1806 35.6021V32.6564H81.0504V35.6021H83.1806Z" fill="url(#paint7_linear)"/>
<path d="M19.058 49.8938V46.3482H21.7889V49.8938H19.058Z" fill="url(#paint8_linear)"/>
<path d="M25.2299 46.3482H22.7174V49.8938H25.2299V46.3482Z" fill="url(#paint9_linear)"/>
<path d="M22.7174 54.7487V51.4212H25.3391V54.7487H22.7174Z" fill="url(#paint10_linear)"/>
<path d="M21.7889 54.7487V51.4212H19.058V54.7487H21.7889Z" fill="url(#paint11_linear)"/>
<path d="M92.0591 12.1033L90.8117 9.14589C109.804 4.81638 134.343 5.86671 140.829 6.73984C143.178 7.05601 217.54 14.4917 200.452 51.893C186.781 81.8141 133.47 92.4666 108.524 94.0526C35.3057 99.9151 5.99358 74.168 3.3742 58.7533H8.7377C10.933 67.5345 15.4733 71.3929 17.469 72.2244C15.6728 71.3264 11.9807 61.7469 13.2281 58.7533H15.3485L15.0991 59.377C13.2281 64.0053 24.2045 85.5708 51.7704 88.9386C79.3363 92.3064 90.5623 92.6806 129.105 84.9472C167.647 77.2137 182.989 52.5167 183.363 51.893L183.369 51.8843C183.829 51.1176 194.722 32.994 166.899 17.5916C144.547 5.2181 107.692 8.77714 92.0591 12.1033Z" fill="url(#paint12_linear)"/>
<path d="M111.551 46.6542H109.749V31.6364H115.628C116.614 31.6364 117.508 31.7722 118.309 32.044C119.11 32.3014 119.797 32.7877 120.369 33.5029C120.955 34.2037 121.248 35.0976 121.248 36.1846C121.248 37.4718 120.877 38.473 120.133 39.1882C119.389 39.9033 118.424 40.3681 117.237 40.5827L122.321 46.6542H120.069L115.156 40.7329H111.551V46.6542ZM111.551 33.3527V39.0165H115.713C116.772 39.0165 117.651 38.802 118.352 38.3729C119.067 37.9295 119.425 37.2001 119.425 36.1846C119.425 35.1548 119.067 34.4254 118.352 33.9963C117.651 33.5672 116.772 33.3527 115.713 33.3527H111.551Z" fill="white"/>
<path d="M124.756 41.9986C124.427 41.0833 124.262 40.1321 124.262 39.1453C124.262 38.1584 124.427 37.2072 124.756 36.2919C125.099 35.3765 125.585 34.5541 126.215 33.8247C126.844 33.0809 127.666 32.4874 128.682 32.044C129.697 31.6006 130.842 31.3789 132.114 31.3789C133.387 31.3789 134.532 31.6006 135.547 32.044C136.563 32.4874 137.385 33.0809 138.014 33.8247C138.644 34.5541 139.123 35.3765 139.452 36.2919C139.795 37.2072 139.967 38.1584 139.967 39.1453C139.967 40.1321 139.795 41.0833 139.452 41.9986C139.123 42.914 138.644 43.7436 138.014 44.4873C137.385 45.2167 136.563 45.8031 135.547 46.2465C134.532 46.6899 133.387 46.9116 132.114 46.9116C130.842 46.9116 129.697 46.6899 128.682 46.2465C127.666 45.8031 126.844 45.2167 126.215 44.4873C125.585 43.7436 125.099 42.914 124.756 41.9986ZM137.757 41.3979C138.014 40.6828 138.143 39.9319 138.143 39.1453C138.143 38.3586 138.014 37.6077 137.757 36.8926C137.514 36.1775 137.149 35.5338 136.663 34.9617C136.191 34.3896 135.561 33.9391 134.775 33.6101C133.988 33.2669 133.101 33.0952 132.114 33.0952C131.128 33.0952 130.241 33.2669 129.454 33.6101C128.667 33.9391 128.031 34.3896 127.545 34.9617C127.073 35.5338 126.708 36.1775 126.451 36.8926C126.207 37.6077 126.086 38.3586 126.086 39.1453C126.086 39.9319 126.207 40.6828 126.451 41.3979C126.708 42.1131 127.073 42.7567 127.545 43.3288C128.031 43.9009 128.667 44.3586 129.454 44.7018C130.241 45.0308 131.128 45.1953 132.114 45.1953C133.101 45.1953 133.988 45.0308 134.775 44.7018C135.561 44.3586 136.191 43.9009 136.663 43.3288C137.149 42.7567 137.514 42.1131 137.757 41.3979Z" fill="white"/>
<path d="M143.147 41.9986C142.819 41.0833 142.654 40.1321 142.654 39.1453C142.654 38.1584 142.819 37.2072 143.147 36.2919C143.491 35.3765 143.977 34.5541 144.606 33.8247C145.236 33.0809 146.058 32.4874 147.074 32.044C148.089 31.6006 149.233 31.3789 150.506 31.3789C151.779 31.3789 152.923 31.6006 153.939 32.044C154.954 32.4874 155.777 33.0809 156.406 33.8247C157.035 34.5541 157.515 35.3765 157.843 36.2919C158.187 37.2072 158.358 38.1584 158.358 39.1453C158.358 40.1321 158.187 41.0833 157.843 41.9986C157.515 42.914 157.035 43.7436 156.406 44.4873C155.777 45.2167 154.954 45.8031 153.939 46.2465C152.923 46.6899 151.779 46.9116 150.506 46.9116C149.233 46.9116 148.089 46.6899 147.074 46.2465C146.058 45.8031 145.236 45.2167 144.606 44.4873C143.977 43.7436 143.491 42.914 143.147 41.9986ZM156.149 41.3979C156.406 40.6828 156.535 39.9319 156.535 39.1453C156.535 38.3586 156.406 37.6077 156.149 36.8926C155.905 36.1775 155.541 35.5338 155.054 34.9617C154.582 34.3896 153.953 33.9391 153.167 33.6101C152.38 33.2669 151.493 33.0952 150.506 33.0952C149.519 33.0952 148.633 33.2669 147.846 33.6101C147.059 33.9391 146.423 34.3896 145.937 34.9617C145.465 35.5338 145.1 36.1775 144.842 36.8926C144.599 37.6077 144.478 38.3586 144.478 39.1453C144.478 39.9319 144.599 40.6828 144.842 41.3979C145.1 42.1131 145.465 42.7567 145.937 43.3288C146.423 43.9009 147.059 44.3586 147.846 44.7018C148.633 45.0308 149.519 45.1953 150.506 45.1953C151.493 45.1953 152.38 45.0308 153.167 44.7018C153.953 44.3586 154.582 43.9009 155.054 43.3288C155.541 42.7567 155.905 42.1131 156.149 41.3979Z" fill="white"/>
<path d="M162.054 31.6364H172.223V33.3527H163.856V38.5231H171.601V40.2394H163.856V46.6542H162.054V31.6364Z" fill="white"/>
<path d="M182.365 64.7406C202.622 47.4776 193.051 32.7675 185.733 27.5703C200.801 53.6145 166.899 74.4698 148.937 81.0806C151.058 80.5817 163.78 78.7107 182.365 64.7406Z" fill="#1F1F1F"/>
</g>
<defs>
<filter id="filter0_d" x="0" y="0" width="206" height="98.9051" filterUnits="userSpaceOnUse" color-interpolation-filters="sRGB">
<feFlood flood-opacity="0" result="BackgroundImageFix"/>
<feColorMatrix in="SourceAlpha" type="matrix" values="0 0 0 0 0 0 0 0 0 0 0 0 0 0 0 0 0 0 127 0"/>
<feOffset dy="1"/>
<feGaussianBlur stdDeviation="1.5"/>
<feColorMatrix type="matrix" values="0 0 0 0 0 0 0 0 0 0 0 0 0 0 0 0 0 0 0.25 0"/>
<feBlend mode="normal" in2="BackgroundImageFix" result="effect1_dropShadow"/>
<feBlend mode="normal" in="SourceGraphic" in2="effect1_dropShadow" result="shape"/>
</filter>
<linearGradient id="paint0_linear" x1="55.7619" y1="2" x2="55.7619" y2="80.3321" gradientUnits="userSpaceOnUse">
<stop stop-color="#F7D745"/>
<stop offset="1" stop-color="#FFAD00"/>
</linearGradient>
<linearGradient id="paint1_linear" x1="55.7619" y1="2" x2="55.7619" y2="80.3321" gradientUnits="userSpaceOnUse">
<stop stop-color="#F7D745"/>
<stop offset="1" stop-color="#FFAD00"/>
</linearGradient>
<linearGradient id="paint2_linear" x1="55.7619" y1="2" x2="55.7619" y2="80.3321" gradientUnits="userSpaceOnUse">
<stop stop-color="#F7D745"/>
<stop offset="1" stop-color="#FFAD00"/>
</linearGradient>
<linearGradient id="paint3_linear" x1="55.7619" y1="2" x2="55.7619" y2="80.3321" gradientUnits="userSpaceOnUse">
<stop stop-color="#F7D745"/>
<stop offset="1" stop-color="#FFAD00"/>
</linearGradient>
<linearGradient id="paint4_linear" x1="55.7619" y1="2" x2="55.7619" y2="80.3321" gradientUnits="userSpaceOnUse">
<stop stop-color="#F7D745"/>
<stop offset="1" stop-color="#FFAD00"/>
</linearGradient>
<linearGradient id="paint5_linear" x1="55.7619" y1="2" x2="55.7619" y2="80.3321" gradientUnits="userSpaceOnUse">
<stop stop-color="#F7D745"/>
<stop offset="1" stop-color="#FFAD00"/>
</linearGradient>
<linearGradient id="paint6_linear" x1="55.7619" y1="2" x2="55.7619" y2="80.3321" gradientUnits="userSpaceOnUse">
<stop stop-color="#F7D745"/>
<stop offset="1" stop-color="#FFAD00"/>
</linearGradient>
<linearGradient id="paint7_linear" x1="55.7619" y1="2" x2="55.7619" y2="80.3321" gradientUnits="userSpaceOnUse">
<stop stop-color="#F7D745"/>
<stop offset="1" stop-color="#FFAD00"/>
</linearGradient>
<linearGradient id="paint8_linear" x1="55.7619" y1="2" x2="55.7619" y2="80.3321" gradientUnits="userSpaceOnUse">
<stop stop-color="#F7D745"/>
<stop offset="1" stop-color="#FFAD00"/>
</linearGradient>
<linearGradient id="paint9_linear" x1="55.7619" y1="2" x2="55.7619" y2="80.3321" gradientUnits="userSpaceOnUse">
<stop stop-color="#F7D745"/>
<stop offset="1" stop-color="#FFAD00"/>
</linearGradient>
<linearGradient id="paint10_linear" x1="55.7619" y1="2" x2="55.7619" y2="80.3321" gradientUnits="userSpaceOnUse">
<stop stop-color="#F7D745"/>
<stop offset="1" stop-color="#FFAD00"/>
</linearGradient>
<linearGradient id="paint11_linear" x1="55.7619" y1="2" x2="55.7619" y2="80.3321" gradientUnits="userSpaceOnUse">
<stop stop-color="#F7D745"/>
<stop offset="1" stop-color="#FFAD00"/>
</linearGradient>
<linearGradient id="paint12_linear" x1="55.7619" y1="2" x2="55.7619" y2="80.3321" gradientUnits="userSpaceOnUse">
<stop stop-color="#F7D745"/>
<stop offset="1" stop-color="#FFAD00"/>
</linearGradient>
</defs>
</svg>
